<?xml version="1.0" encoding="UTF-8" standalone="no"?>
<!DOCTYPE svg PUBLIC "-//W3C//DTD SVG 1.1//EN"
 "http://www.w3.org/Graphics/SVG/1.1/DTD/svg11.dtd">
<!-- Generated by graphviz version 2.26.3 (20100126.1600)
 -->
<!-- Title: controllers_diagram Pages: 1 -->
<svg width="4060pt" height="2106pt"
 viewBox="0.00 0.00 4060.44 2106.00" xmlns="http://www.w3.org/2000/svg" xmlns:xlink="http://www.w3.org/1999/xlink">
<g id="graph1" class="graph" transform="scale(1 1) rotate(0) translate(4 2102)">
<title>controllers_diagram</title>
<polygon fill="white" stroke="white" points="-4,5 -4,-2102 4057.44,-2102 4057.44,5 -4,5"/>
<!-- _diagram_info -->
<g id="node1" class="node"><title>_diagram_info</title>
<text text-anchor="start" x="1216" y="-2049.3" font-family="Times Roman,serif" font-size="13.00">Controllers diagram</text>
<text text-anchor="start" x="1216" y="-2032.3" font-family="Times Roman,serif" font-size="13.00">Date: Mar 19 2014 &#45; 00:50</text>
<text text-anchor="start" x="1216" y="-2015.3" font-family="Times Roman,serif" font-size="13.00">Generated by RailRoady 1.1.1</text>
<text text-anchor="start" x="1216" y="-1998.3" font-family="Times Roman,serif" font-size="13.00">http://railroady.prestonlee.com</text>
</g>
<!-- RidingAddressesController -->
<g id="node2" class="node"><title>RidingAddressesController</title>
<ellipse fill="none" stroke="black" cx="139.5" cy="-227.636" rx="138.093" ry="18.3848"/>
<text text-anchor="middle" x="139.5" y="-224.036" font-family="Times Roman,serif" font-size="14.00">RidingAddressesController</text>
</g>
<!-- Admins::SessionsController -->
<g id="node3" class="node"><title>Admins::SessionsController</title>
<ellipse fill="none" stroke="black" cx="3126.5" cy="-1936.5" rx="143.043" ry="18.3848"/>
<text text-anchor="middle" x="3126.5" y="-1932.9" font-family="Times Roman,serif" font-size="14.00">Admins::SessionsController</text>
</g>
<!-- LoginController -->
<g id="node4" class="node"><title>LoginController</title>
<ellipse fill="none" stroke="black" cx="2772.27" cy="-600.18" rx="85.7684" ry="18.3848"/>
<text text-anchor="middle" x="2772.27" y="-596.58" font-family="Times Roman,serif" font-size="14.00">LoginController</text>
</g>
<!-- MppsController -->
<g id="node5" class="node"><title>MppsController</title>
<ellipse fill="none" stroke="black" cx="1719.5" cy="-105.239" rx="84.8528" ry="18.3848"/>
<text text-anchor="middle" x="1719.5" y="-101.639" font-family="Times Roman,serif" font-size="14.00">MppsController</text>
</g>
<!-- ApiController -->
<g id="node6" class="node"><title>ApiController</title>
<ellipse fill="none" stroke="black" cx="2632.5" cy="-445.5" rx="75.1594" ry="18.3848"/>
<text text-anchor="middle" x="2632.5" y="-441.9" font-family="Times Roman,serif" font-size="14.00">ApiController</text>
</g>
<!-- ContactController -->
<g id="node7" class="node"><title>ContactController</title>
<ellipse fill="none" stroke="black" cx="1631.88" cy="-1784.2" rx="97.7889" ry="18.3848"/>
<text text-anchor="middle" x="1631.88" y="-1780.6" font-family="Times Roman,serif" font-size="14.00">ContactController</text>
</g>
<!-- PlatformController -->
<g id="node8" class="node"><title>PlatformController</title>
<ellipse fill="none" stroke="black" cx="2495.32" cy="-908.647" rx="101.116" ry="18.3848"/>
<text text-anchor="middle" x="2495.32" y="-905.047" font-family="Times Roman,serif" font-size="14.00">PlatformController</text>
</g>
<!-- NewsController -->
<g id="node9" class="node"><title>NewsController</title>
<ellipse fill="none" stroke="black" cx="1578.88" cy="-906.014" rx="86.9741" ry="18.3848"/>
<text text-anchor="middle" x="1578.88" y="-902.414" font-family="Times Roman,serif" font-size="14.00">NewsController</text>
</g>
<!-- EnewsletterController -->
<g id="node10" class="node"><title>EnewsletterController</title>
<ellipse fill="none" stroke="black" cx="905.313" cy="-142.317" rx="119.001" ry="18.3848"/>
<text text-anchor="middle" x="905.313" y="-138.717" font-family="Times Roman,serif" font-size="14.00">EnewsletterController</text>
</g>
<!-- DonationLimitsController -->
<g id="node11" class="node"><title>DonationLimitsController</title>
<ellipse fill="none" stroke="black" cx="3148.6" cy="-141.065" rx="133.851" ry="18.3848"/>
<text text-anchor="middle" x="3148.6" y="-137.465" font-family="Times Roman,serif" font-size="14.00">DonationLimitsController</text>
</g>
<!-- CabinetController -->
<g id="node12" class="node"><title>CabinetController</title>
<ellipse fill="none" stroke="black" cx="1889.08" cy="-514.337" rx="97.0803" ry="18.3848"/>
<text text-anchor="middle" x="1889.08" y="-510.737" font-family="Times Roman,serif" font-size="14.00">CabinetController</text>
</g>
<!-- HistoryController -->
<g id="node13" class="node"><title>HistoryController</title>
<ellipse fill="none" stroke="black" cx="2332.38" cy="-113.029" rx="94.9596" ry="18.3848"/>
<text text-anchor="middle" x="2332.38" y="-109.429" font-family="Times Roman,serif" font-size="14.00">HistoryController</text>
</g>
<!-- MyLiberalController -->
<g id="node14" class="node"><title>MyLiberalController</title>
<ellipse fill="none" stroke="black" cx="2152.4" cy="-535.398" rx="106.98" ry="18.3848"/>
<text text-anchor="middle" x="2152.4" y="-531.798" font-family="Times Roman,serif" font-size="14.00">MyLiberalController</text>
</g>
<!-- HomeController -->
<g id="node15" class="node"><title>HomeController</title>
<ellipse fill="none" stroke="black" cx="99.8045" cy="-964.654" rx="87.889" ry="18.3848"/>
<text text-anchor="middle" x="99.8045" y="-961.054" font-family="Times Roman,serif" font-size="14.00">HomeController</text>
</g>
<!-- EventsController -->
<g id="node16" class="node"><title>EventsController</title>
<ellipse fill="none" stroke="black" cx="3957.94" cy="-962.768" rx="92.839" ry="18.3848"/>
<text text-anchor="middle" x="3957.94" y="-959.168" font-family="Times Roman,serif" font-size="14.00">EventsController</text>
</g>
<!-- LogoController -->
<g id="node17" class="node"><title>LogoController</title>
<ellipse fill="none" stroke="black" cx="2819.71" cy="-1368.45" rx="82.939" ry="18.3848"/>
<text text-anchor="middle" x="2819.71" y="-1364.85" font-family="Times Roman,serif" font-size="14.00">LogoController</text>
</g>
<!-- TaxableBenefitsController -->
<g id="node18" class="node"><title>TaxableBenefitsController</title>
<ellipse fill="none" stroke="black" cx="2156.69" cy="-1845.94" rx="135.972" ry="18.3848"/>
<text text-anchor="middle" x="2156.69" y="-1842.34" font-family="Times Roman,serif" font-size="14.00">TaxableBenefitsController</text>
</g>
<!-- CommissionsController -->
<g id="node19" class="node"><title>CommissionsController</title>
<ellipse fill="none" stroke="black" cx="2436.62" cy="-569.475" rx="123.037" ry="18.3848"/>
<text text-anchor="middle" x="2436.62" y="-565.875" font-family="Times Roman,serif" font-size="14.00">CommissionsController</text>
</g>
<!-- EligibilityController -->
<g id="node20" class="node"><title>EligibilityController</title>
<ellipse fill="none" stroke="black" cx="2674.55" cy="-116.436" rx="103.945" ry="18.3848"/>
<text text-anchor="middle" x="2674.55" y="-112.836" font-family="Times Roman,serif" font-size="14.00">EligibilityController</text>
</g>
<!-- AboutDonationsController -->
<g id="node21" class="node"><title>AboutDonationsController</title>
<ellipse fill="none" stroke="black" cx="869.363" cy="-1803.87" rx="138.801" ry="18.3848"/>
<text text-anchor="middle" x="869.363" y="-1800.27" font-family="Times Roman,serif" font-size="14.00">AboutDonationsController</text>
</g>
<!-- TeamController -->
<g id="node22" class="node"><title>TeamController</title>
<ellipse fill="none" stroke="black" cx="126.286" cy="-1712.53" rx="85.0596" ry="18.3848"/>
<text text-anchor="middle" x="126.286" y="-1708.93" font-family="Times Roman,serif" font-size="14.00">TeamController</text>
</g>
<!-- PetitionsController -->
<g id="node23" class="node"><title>PetitionsController</title>
<ellipse fill="none" stroke="black" cx="1250.69" cy="-1371.65" rx="102.03" ry="18.3848"/>
<text text-anchor="middle" x="1250.69" y="-1368.05" font-family="Times Roman,serif" font-size="14.00">PetitionsController</text>
</g>
<!-- Users::PasswordsController -->
<g id="node24" class="node"><title>Users::PasswordsController</title>
<ellipse fill="none" stroke="black" cx="3198" cy="-942.5" rx="144.25" ry="18.3848"/>
<text text-anchor="middle" x="3198" y="-938.9" font-family="Times Roman,serif" font-size="14.00">Users::PasswordsController</text>
</g>
<!-- Users::ProfileController -->
<g id="node25" class="node"><title>Users::ProfileController</title>
<ellipse fill="none" stroke="black" cx="1615.5" cy="-19.5" rx="123.243" ry="18.3848"/>
<text text-anchor="middle" x="1615.5" y="-15.9" font-family="Times Roman,serif" font-size="14.00">Users::ProfileController</text>
</g>
<!-- Users::OmniauthCallbacksController -->
<g id="node26" class="node"><title>Users::OmniauthCallbacksController</title>
<ellipse fill="none" stroke="black" cx="2460.5" cy="-19.5" rx="186.884" ry="18.3848"/>
<text text-anchor="middle" x="2460.5" y="-15.9" font-family="Times Roman,serif" font-size="14.00">Users::OmniauthCallbacksController</text>
</g>
<!-- Users::RegistrationsController -->
<g id="node27" class="node"><title>Users::RegistrationsController</title>
<ellipse fill="none" stroke="black" cx="2359.5" cy="-2007.5" rx="157.184" ry="18.3848"/>
<text text-anchor="middle" x="2359.5" y="-2003.9" font-family="Times Roman,serif" font-size="14.00">Users::RegistrationsController</text>
</g>
<!-- Users::SessionsController -->
<g id="node28" class="node"><title>Users::SessionsController</title>
<ellipse fill="none" stroke="black" cx="3722" cy="-1936.5" rx="135.057" ry="18.3848"/>
<text text-anchor="middle" x="3722" y="-1932.9" font-family="Times Roman,serif" font-size="14.00">Users::SessionsController</text>
</g>
<!-- RidingsController -->
<g id="node29" class="node"><title>RidingsController</title>
<ellipse fill="none" stroke="black" cx="1888.52" cy="-814.198" rx="94.9596" ry="18.3848"/>
<text text-anchor="middle" x="1888.52" y="-810.598" font-family="Times Roman,serif" font-size="14.00">RidingsController</text>
</g>
<!-- UsersController -->
<g id="node30" class="node"><title>UsersController</title>
<ellipse fill="none" stroke="black" cx="1616.03" cy="-574.161" rx="86.9741" ry="18.3848"/>
<text text-anchor="middle" x="1616.03" y="-570.561" font-family="Times Roman,serif" font-size="14.00">UsersController</text>
</g>
<!-- AboutusController -->
<g id="node31" class="node"><title>AboutusController</title>
<ellipse fill="none" stroke="black" cx="2285.6" cy="-1425.05" rx="99.9096" ry="18.3848"/>
<text text-anchor="middle" x="2285.6" y="-1421.45" font-family="Times Roman,serif" font-size="14.00">AboutusController</text>
</g>
<!-- GetinvolvedController -->
<g id="node32" class="node"><title>GetinvolvedController</title>
<ellipse fill="none" stroke="black" cx="2727.31" cy="-1837.86" rx="118.794" ry="18.3848"/>
<text text-anchor="middle" x="2727.31" y="-1834.26" font-family="Times Roman,serif" font-size="14.00">GetinvolvedController</text>
</g>
<!-- ConstitutionController -->
<g id="node33" class="node"><title>ConstitutionController</title>
<ellipse fill="none" stroke="black" cx="1890.86" cy="-1863.66" rx="120.915" ry="18.3848"/>
<text text-anchor="middle" x="1890.86" y="-1860.06" font-family="Times Roman,serif" font-size="14.00">ConstitutionController</text>
</g>
<!-- VolunteersController -->
<g id="node34" class="node"><title>VolunteersController</title>
<ellipse fill="none" stroke="black" cx="2029.13" cy="-90.5" rx="111.93" ry="18.3848"/>
<text text-anchor="middle" x="2029.13" y="-86.9" font-family="Times Roman,serif" font-size="14.00">VolunteersController</text>
</g>
<!-- TasksController -->
<g id="node35" class="node"><title>TasksController</title>
<ellipse fill="none" stroke="black" cx="3188.07" cy="-1806.11" rx="85.7684" ry="18.3848"/>
<text text-anchor="middle" x="3188.07" y="-1802.51" font-family="Times Roman,serif" font-size="14.00">TasksController</text>
</g>
<!-- ToolkitController -->
<g id="node36" class="node"><title>ToolkitController</title>
<ellipse fill="none" stroke="black" cx="1797.83" cy="-1095.22" rx="91.9239" ry="18.3848"/>
<text text-anchor="middle" x="1797.83" y="-1091.62" font-family="Times Roman,serif" font-size="14.00">ToolkitController</text>
</g>
<!-- ApplicationController -->
<g id="node37" class="node"><title>ApplicationController</title>
<ellipse fill="none" stroke="black" cx="2036.91" cy="-1050.56" rx="113.844" ry="18.3848"/>
<text text-anchor="middle" x="2036.91" y="-1046.96" font-family="Times Roman,serif" font-size="14.00">ApplicationController</text>
</g>
<!-- ApplicationController&#45;&gt;RidingAddressesController -->
<g id="edge2" class="edge"><title>ApplicationController&#45;&gt;RidingAddressesController</title>
<path fill="none" stroke="black" d="M1996.84,-1033.18C1749.31,-925.823 430.615,-353.895 180.477,-245.408"/>
</g>
<!-- ApplicationController&#45;&gt;LoginController -->
<g id="edge6" class="edge"><title>ApplicationController&#45;&gt;LoginController</title>
<path fill="none" stroke="black" d="M2066.19,-1032.62C2184.52,-960.149 2626.68,-689.349 2743.71,-617.676"/>
</g>
<!-- ApplicationController&#45;&gt;MppsController -->
<g id="edge8" class="edge"><title>ApplicationController&#45;&gt;MppsController</title>
<path fill="none" stroke="black" d="M2035.1,-1031.79C2030.69,-990.877 2017.25,-891.161 1985.12,-814.221 1923.87,-667.53 1848.51,-662.141 1790.48,-514.143 1734.46,-371.261 1722.52,-183.069 1720.09,-123.88"/>
</g>
<!-- ApplicationController&#45;&gt;ContactController -->
<g id="edge10" class="edge"><title>ApplicationController&#45;&gt;ContactController</title>
<path fill="none" stroke="black" d="M2024.35,-1069.03C1993.54,-1115.44 1914.29,-1241.65 1880.51,-1359.56 1873.21,-1385.07 1884,-1393.99 1875.19,-1419.01 1822.69,-1568.12 1695.45,-1715.43 1649.12,-1765.9"/>
</g>
<!-- ApplicationController&#45;&gt;PlatformController -->
<g id="edge12" class="edge"><title>ApplicationController&#45;&gt;PlatformController</title>
<path fill="none" stroke="black" d="M2089.94,-1034.14C2178.67,-1006.67 2356.11,-951.741 2443.81,-924.591"/>
</g>
<!-- ApplicationController&#45;&gt;NewsController -->
<g id="edge14" class="edge"><title>ApplicationController&#45;&gt;NewsController</title>
<path fill="none" stroke="black" d="M1984.36,-1033.98C1894.96,-1005.76 1714.49,-948.811 1627.69,-921.418"/>
</g>
<!-- ApplicationController&#45;&gt;EnewsletterController -->
<g id="edge16" class="edge"><title>ApplicationController&#45;&gt;EnewsletterController</title>
<path fill="none" stroke="black" d="M2014.3,-1032.42C1869.46,-916.159 1072.98,-276.889 927.971,-160.503"/>
</g>
<!-- ApplicationController&#45;&gt;DonationLimitsController -->
<g id="edge18" class="edge"><title>ApplicationController&#45;&gt;DonationLimitsController</title>
<path fill="none" stroke="black" d="M2059.74,-1032.37C2107.43,-994.364 2221.01,-903.657 2315.63,-826.723 2639.35,-563.518 3030.36,-239.237 3126.48,-159.44"/>
</g>
<!-- ApplicationController&#45;&gt;CabinetController -->
<g id="edge20" class="edge"><title>ApplicationController&#45;&gt;CabinetController</title>
<path fill="none" stroke="black" d="M2033.46,-1032.03C2025.89,-991.991 2006.73,-894.533 1985.12,-814.221 1956.14,-706.528 1912.36,-580.041 1895.77,-533.099"/>
</g>
<!-- ApplicationController&#45;&gt;HistoryController -->
<g id="edge22" class="edge"><title>ApplicationController&#45;&gt;HistoryController</title>
<path fill="none" stroke="black" d="M2038.24,-1031.93C2041.53,-992.696 2051.95,-899.213 2080.43,-826.55 2135.99,-684.828 2207.18,-677.904 2261,-535.512 2317.14,-386.95 2329.29,-192.335 2331.77,-131.812"/>
</g>
<!-- ApplicationController&#45;&gt;MyLiberalController -->
<g id="edge24" class="edge"><title>ApplicationController&#45;&gt;MyLiberalController</title>
<path fill="none" stroke="black" d="M2040.2,-1031.91C2047.08,-993.404 2063.71,-902.377 2080.43,-826.55 2103.26,-723.078 2135.27,-600.131 2147.44,-554.055"/>
</g>
<!-- ApplicationController&#45;&gt;HomeController -->
<g id="edge26" class="edge"><title>ApplicationController&#45;&gt;HomeController</title>
<path fill="none" stroke="black" d="M1926.86,-1045.68C1577.71,-1030.19 499.48,-982.378 186.07,-968.48"/>
</g>
<!-- ApplicationController&#45;&gt;EventsController -->
<g id="edge28" class="edge"><title>ApplicationController&#45;&gt;EventsController</title>
<path fill="none" stroke="black" d="M2146.74,-1045.54C2491.77,-1029.77 3549.77,-981.421 3867.06,-966.921"/>
</g>
<!-- ApplicationController&#45;&gt;LogoController -->
<g id="edge30" class="edge"><title>ApplicationController&#45;&gt;LogoController</title>
<path fill="none" stroke="black" d="M2077.88,-1067.93C2111.57,-1082.02 2160.68,-1102.13 2204.13,-1118.27 2408.77,-1194.27 2471.91,-1182.76 2669.29,-1276 2715.57,-1297.86 2765.48,-1330.54 2794.59,-1350.63"/>
</g>
<!-- ApplicationController&#45;&gt;TaxableBenefitsController -->
<g id="edge32" class="edge"><title>ApplicationController&#45;&gt;TaxableBenefitsController</title>
<path fill="none" stroke="black" d="M2050.16,-1069.22C2082.07,-1115.56 2162.28,-1240.72 2185.71,-1359.62 2188.02,-1371.32 2163.74,-1739.75 2157.93,-1827.37"/>
</g>
<!-- ApplicationController&#45;&gt;CommissionsController -->
<g id="edge34" class="edge"><title>ApplicationController&#45;&gt;CommissionsController</title>
<path fill="none" stroke="black" d="M2067.51,-1032.61C2123.24,-998.62 2242.31,-919.863 2315.63,-826.723 2377.45,-748.194 2417.17,-632.939 2431.07,-588.195"/>
</g>
<!-- ApplicationController&#45;&gt;EligibilityController -->
<g id="edge36" class="edge"><title>ApplicationController&#45;&gt;EligibilityController</title>
<path fill="none" stroke="black" d="M2037.42,-1031.88C2039.16,-992.165 2046.8,-897.198 2080.43,-826.55 2233.13,-505.801 2564.96,-209.629 2652.84,-134.64"/>
</g>
<!-- ApplicationController&#45;&gt;AboutDonationsController -->
<g id="edge38" class="edge"><title>ApplicationController&#45;&gt;AboutDonationsController</title>
<path fill="none" stroke="black" d="M2008.91,-1068.62C1849.48,-1171.49 1057.54,-1682.46 897.563,-1785.67"/>
</g>
<!-- ApplicationController&#45;&gt;TeamController -->
<g id="edge40" class="edge"><title>ApplicationController&#45;&gt;TeamController</title>
<path fill="none" stroke="black" d="M1988.24,-1067.42C1720.64,-1160.14 430.933,-1606.98 171.722,-1696.79"/>
</g>
<!-- ApplicationController&#45;&gt;PetitionsController -->
<g id="edge42" class="edge"><title>ApplicationController&#45;&gt;PetitionsController</title>
<path fill="none" stroke="black" d="M1987.63,-1067.31C1868.02,-1108.06 1564.78,-1211.76 1464.64,-1249.95 1449.28,-1255.81 1445.17,-1256.74 1430.49,-1264.12 1374.45,-1292.32 1312.29,-1331.34 1277.71,-1353.79"/>
</g>
<!-- ApplicationController&#45;&gt;RidingsController -->
<g id="edge52" class="edge"><title>ApplicationController&#45;&gt;RidingsController</title>
<path fill="none" stroke="black" d="M2025.26,-1032.01C1997.52,-987.828 1927.79,-876.756 1900.11,-832.659"/>
</g>
<!-- ApplicationController&#45;&gt;UsersController -->
<g id="edge54" class="edge"><title>ApplicationController&#45;&gt;UsersController</title>
<path fill="none" stroke="black" d="M2015.73,-1032.36C1971.77,-994.11 1868.31,-901.653 1791.92,-814.176 1724.13,-736.546 1655.18,-634.148 1628.04,-592.73"/>
</g>
<!-- ApplicationController&#45;&gt;AboutusController -->
<g id="edge56" class="edge"><title>ApplicationController&#45;&gt;AboutusController</title>
<path fill="none" stroke="black" d="M2049.24,-1069.13C2091.58,-1132.89 2230.74,-1342.43 2273.2,-1406.36"/>
</g>
<!-- ApplicationController&#45;&gt;GetinvolvedController -->
<g id="edge58" class="edge"><title>ApplicationController&#45;&gt;GetinvolvedController</title>
<path fill="none" stroke="black" d="M2054.82,-1068.89C2107.14,-1122.61 2263.82,-1284.7 2387.2,-1425.22 2517.67,-1573.81 2666.48,-1760.8 2712.79,-1819.42"/>
</g>
<!-- ApplicationController&#45;&gt;ConstitutionController -->
<g id="edge60" class="edge"><title>ApplicationController&#45;&gt;ConstitutionController</title>
<path fill="none" stroke="black" d="M2023.3,-1069.16C1990.49,-1115.37 1907.69,-1240.26 1880.51,-1359.56 1869.59,-1407.52 1885.82,-1759.81 1889.94,-1845.1"/>
</g>
<!-- ApplicationController&#45;&gt;VolunteersController -->
<g id="edge62" class="edge"><title>ApplicationController&#45;&gt;VolunteersController</title>
<path fill="none" stroke="black" d="M2036.75,-1031.81C2035.77,-909.961 2030.27,-231.583 2029.28,-109.367"/>
</g>
<!-- ApplicationController&#45;&gt;TasksController -->
<g id="edge64" class="edge"><title>ApplicationController&#45;&gt;TasksController</title>
<path fill="none" stroke="black" d="M2064.51,-1068.67C2221.96,-1172.02 3005.09,-1686.01 3161.04,-1788.37"/>
</g>
<!-- ApplicationController&#45;&gt;ToolkitController -->
<g id="edge66" class="edge"><title>ApplicationController&#45;&gt;ToolkitController</title>
<path fill="none" stroke="black" d="M1961.92,-1064.57C1930.97,-1070.35 1895.37,-1077 1865.26,-1082.63"/>
</g>
<!-- LoginhelpController -->
<g id="node38" class="node"><title>LoginhelpController</title>
<ellipse fill="none" stroke="black" cx="3915.4" cy="-226.237" rx="106.98" ry="18.3848"/>
<text text-anchor="middle" x="3915.4" y="-222.637" font-family="Times Roman,serif" font-size="14.00">LoginhelpController</text>
</g>
<!-- ApplicationController&#45;&gt;LoginhelpController -->
<g id="edge68" class="edge"><title>ApplicationController&#45;&gt;LoginhelpController</title>
<path fill="none" stroke="black" d="M2076.57,-1033.15C2322.04,-925.437 3631.42,-350.854 3876.02,-243.515"/>
</g>
<!-- LawnsignRequestsController -->
<g id="node39" class="node"><title>LawnsignRequestsController</title>
<ellipse fill="none" stroke="black" cx="2033.11" cy="-1359.59" rx="150.821" ry="18.3848"/>
<text text-anchor="middle" x="2033.11" y="-1355.99" font-family="Times Roman,serif" font-size="14.00">LawnsignRequestsController</text>
</g>
<!-- ApplicationController&#45;&gt;LawnsignRequestsController -->
<g id="edge70" class="edge"><title>ApplicationController&#45;&gt;LawnsignRequestsController</title>
<path fill="none" stroke="black" d="M2036.67,-1069.42C2036,-1124.73 2034.02,-1285.99 2033.34,-1340.97"/>
</g>
<!-- PartyHistoryController -->
<g id="node40" class="node"><title>PartyHistoryController</title>
<ellipse fill="none" stroke="black" cx="2817.56" cy="-982.386" rx="121.122" ry="18.3848"/>
<text text-anchor="middle" x="2817.56" y="-978.786" font-family="Times Roman,serif" font-size="14.00">PartyHistoryController</text>
</g>
<!-- ApplicationController&#45;&gt;PartyHistoryController -->
<g id="edge72" class="edge"><title>ApplicationController&#45;&gt;PartyHistoryController</title>
<path fill="none" stroke="black" d="M2137.36,-1041.79C2285.51,-1028.85 2561.28,-1004.77 2712.19,-991.588"/>
</g>
<!-- VideosController -->
<g id="node41" class="node"><title>VideosController</title>
<ellipse fill="none" stroke="black" cx="1377.14" cy="-119.895" rx="91.9239" ry="18.3848"/>
<text text-anchor="middle" x="1377.14" y="-116.295" font-family="Times Roman,serif" font-size="14.00">VideosController</text>
</g>
<!-- ApplicationController&#45;&gt;VideosController -->
<g id="edge74" class="edge"><title>ApplicationController&#45;&gt;VideosController</title>
<path fill="none" stroke="black" d="M2011.37,-1032.32C1962.31,-996.053 1854.23,-910.076 1791.92,-814.176 1730.12,-719.063 1757.68,-674.614 1704.62,-574.362 1607.5,-390.846 1444.6,-197.333 1393.19,-138.139"/>
</g>
<!-- RedtrilliumController -->
<g id="node43" class="node"><title>RedtrilliumController</title>
<ellipse fill="none" stroke="black" cx="1545.09" cy="-1264.27" rx="113.137" ry="18.3848"/>
<text text-anchor="middle" x="1545.09" y="-1260.67" font-family="Times Roman,serif" font-size="14.00">RedtrilliumController</text>
</g>
<!-- ApplicationController&#45;&gt;RedtrilliumController -->
<g id="edge78" class="edge"><title>ApplicationController&#45;&gt;RedtrilliumController</title>
<path fill="none" stroke="black" d="M1996.66,-1068.05C1904.2,-1108.22 1677.53,-1206.72 1585.2,-1246.84"/>
</g>
<!-- ExecutiveCouncilController -->
<g id="node44" class="node"><title>ExecutiveCouncilController</title>
<ellipse fill="none" stroke="black" cx="2524.69" cy="-1275.82" rx="143.043" ry="18.3848"/>
<text text-anchor="middle" x="2524.69" y="-1272.22" font-family="Times Roman,serif" font-size="14.00">ExecutiveCouncilController</text>
</g>
<!-- ApplicationController&#45;&gt;ExecutiveCouncilController -->
<g id="edge80" class="edge"><title>ApplicationController&#45;&gt;ExecutiveCouncilController</title>
<path fill="none" stroke="black" d="M2074.78,-1068.05C2165.43,-1109.91 2394.18,-1215.55 2485.83,-1257.87"/>
</g>
<!-- AbcMemberController -->
<g id="node45" class="node"><title>AbcMemberController</title>
<ellipse fill="none" stroke="black" cx="2198.03" cy="-826.636" rx="116.172" ry="18.3848"/>
<text text-anchor="middle" x="2198.03" y="-823.036" font-family="Times Roman,serif" font-size="14.00">AbcMemberController</text>
</g>
<!-- ApplicationController&#45;&gt;AbcMemberController -->
<g id="edge82" class="edge"><title>ApplicationController&#45;&gt;AbcMemberController</title>
<path fill="none" stroke="black" d="M2050.37,-1031.85C2080.77,-989.597 2154.46,-887.186 2184.72,-845.132"/>
</g>
<!-- RegisterController -->
<g id="node46" class="node"><title>RegisterController</title>
<ellipse fill="none" stroke="black" cx="2276.17" cy="-1104.1" rx="99.9096" ry="18.3848"/>
<text text-anchor="middle" x="2276.17" y="-1100.5" font-family="Times Roman,serif" font-size="14.00">RegisterController</text>
</g>
<!-- ApplicationController&#45;&gt;RegisterController -->
<g id="edge84" class="edge"><title>ApplicationController&#45;&gt;RegisterController</title>
<path fill="none" stroke="black" d="M2103.87,-1065.54C2137.74,-1073.12 2178.65,-1082.28 2212.1,-1089.76"/>
</g>
<!-- PrivacyController -->
<g id="node47" class="node"><title>PrivacyController</title>
<ellipse fill="none" stroke="black" cx="2421.72" cy="-1816.07" rx="94.9596" ry="18.3848"/>
<text text-anchor="middle" x="2421.72" y="-1812.47" font-family="Times Roman,serif" font-size="14.00">PrivacyController</text>
</g>
<!-- ApplicationController&#45;&gt;PrivacyController -->
<g id="edge86" class="edge"><title>ApplicationController&#45;&gt;PrivacyController</title>
<path fill="none" stroke="black" d="M2049.91,-1069.27C2081.26,-1115.72 2160.3,-1241.13 2185.71,-1359.62 2191.8,-1387.99 2176.55,-1396.84 2184.01,-1424.87 2226.7,-1585.39 2358.12,-1744.55 2404.94,-1797.58"/>
</g>
<!-- PlaPresidentsController -->
<g id="node48" class="node"><title>PlaPresidentsController</title>
<ellipse fill="none" stroke="black" cx="806.868" cy="-1220.25" rx="125.865" ry="18.3848"/>
<text text-anchor="middle" x="806.868" y="-1216.65" font-family="Times Roman,serif" font-size="14.00">PlaPresidentsController</text>
</g>
<!-- ApplicationController&#45;&gt;PlaPresidentsController -->
<g id="edge88" class="edge"><title>ApplicationController&#45;&gt;PlaPresidentsController</title>
<path fill="none" stroke="black" d="M1936.21,-1059.31C1876.75,-1064.79 1800.05,-1072.42 1732.11,-1080.91 1420.41,-1119.88 1051.68,-1179.48 889.928,-1206.31"/>
</g>
<!-- VolunteerExtendedProfileController -->
<g id="node49" class="node"><title>VolunteerExtendedProfileController</title>
<ellipse fill="none" stroke="black" cx="825.474" cy="-710.645" rx="184.055" ry="18.3848"/>
<text text-anchor="middle" x="825.474" y="-707.045" font-family="Times Roman,serif" font-size="14.00">VolunteerExtendedProfileController</text>
</g>
<!-- ApplicationController&#45;&gt;VolunteerExtendedProfileController -->
<g id="edge90" class="edge"><title>ApplicationController&#45;&gt;VolunteerExtendedProfileController</title>
<path fill="none" stroke="black" d="M1971.67,-1035.32C1872.75,-1011.97 1679.07,-965.294 1515.99,-920.172 1278.13,-854.358 997.441,-765.759 880.697,-728.415"/>
</g>
<!-- ProfileController -->
<g id="node57" class="node"><title>ProfileController</title>
<ellipse fill="none" stroke="black" cx="1783.59" cy="-1418.81" rx="90.0096" ry="18.3848"/>
<text text-anchor="middle" x="1783.59" y="-1415.21" font-family="Times Roman,serif" font-size="14.00">ProfileController</text>
</g>
<!-- ApplicationController&#45;&gt;ProfileController -->
<g id="edge92" class="edge"><title>ApplicationController&#45;&gt;ProfileController</title>
<path fill="none" stroke="black" d="M2024.17,-1069.07C1980.83,-1132.08 1839.36,-1337.75 1796.2,-1400.48"/>
</g>
<!-- DonateController -->
<g id="node58" class="node"><title>DonateController</title>
<ellipse fill="none" stroke="black" cx="1333.23" cy="-1848.96" rx="96.1665" ry="18.3848"/>
<text text-anchor="middle" x="1333.23" y="-1845.36" font-family="Times Roman,serif" font-size="14.00">DonateController</text>
</g>
<!-- ApplicationController&#45;&gt;DonateController -->
<g id="edge94" class="edge"><title>ApplicationController&#45;&gt;DonateController</title>
<path fill="none" stroke="black" d="M2018.93,-1068.97C1967.13,-1122.19 1813.51,-1281.17 1692,-1418.62 1554.12,-1574.57 1396.05,-1770.51 1347.9,-1830.61"/>
</g>
<!-- PhotosController -->
<g id="node60" class="node"><title>PhotosController</title>
<ellipse fill="none" stroke="black" cx="1250.22" cy="-983.814" rx="92.839" ry="18.3848"/>
<text text-anchor="middle" x="1250.22" y="-980.214" font-family="Times Roman,serif" font-size="14.00">PhotosController</text>
</g>
<!-- ApplicationController&#45;&gt;PhotosController -->
<g id="edge96" class="edge"><title>ApplicationController&#45;&gt;PhotosController</title>
<path fill="none" stroke="black" d="M1935.67,-1041.97C1779.43,-1028.71 1482.32,-1003.51 1336.01,-991.092"/>
</g>
<!-- MembershipController -->
<g id="node61" class="node"><title>MembershipController</title>
<ellipse fill="none" stroke="black" cx="3930.33" cy="-1712.33" rx="118.794" ry="18.3848"/>
<text text-anchor="middle" x="3930.33" y="-1708.73" font-family="Times Roman,serif" font-size="14.00">MembershipController</text>
</g>
<!-- ApplicationController&#45;&gt;MembershipController -->
<g id="edge98" class="edge"><title>ApplicationController&#45;&gt;MembershipController</title>
<path fill="none" stroke="black" d="M2077.88,-1067.93C2111.57,-1082.02 2160.68,-1102.13 2204.13,-1118.27 2390.51,-1187.49 2439.69,-1197.5 2627.84,-1261.73 3118.09,-1429.09 3710.69,-1635.65 3881.88,-1695.41"/>
</g>
<!-- OntarioliberalfundController -->
<g id="node62" class="node"><title>OntarioliberalfundController</title>
<ellipse fill="none" stroke="black" cx="3257.09" cy="-1219.8" rx="147.992" ry="18.3848"/>
<text text-anchor="middle" x="3257.09" y="-1216.2" font-family="Times Roman,serif" font-size="14.00">OntarioliberalfundController</text>
</g>
<!-- ApplicationController&#45;&gt;OntarioliberalfundController -->
<g id="edge100" class="edge"><title>ApplicationController&#45;&gt;OntarioliberalfundController</title>
<path fill="none" stroke="black" d="M2128.22,-1061.71C2190.28,-1069.39 2274.24,-1079.96 2348.2,-1089.92 2645.18,-1129.92 2996.14,-1181.21 3161.64,-1205.64"/>
</g>
<!-- LeaderController -->
<g id="node63" class="node"><title>LeaderController</title>
<ellipse fill="none" stroke="black" cx="1284.4" cy="-603.462" rx="92.839" ry="18.3848"/>
<text text-anchor="middle" x="1284.4" y="-599.862" font-family="Times Roman,serif" font-size="14.00">LeaderController</text>
</g>
<!-- ApplicationController&#45;&gt;LeaderController -->
<g id="edge102" class="edge"><title>ApplicationController&#45;&gt;LeaderController</title>
<path fill="none" stroke="black" d="M2006.47,-1032.48C1884.8,-960.187 1434.09,-692.402 1313.98,-621.035"/>
</g>
<!-- CandidatesController -->
<g id="node64" class="node"><title>CandidatesController</title>
<ellipse fill="none" stroke="black" cx="3233.41" cy="-707.353" rx="114.051" ry="18.3848"/>
<text text-anchor="middle" x="3233.41" y="-703.753" font-family="Times Roman,serif" font-size="14.00">CandidatesController</text>
</g>
<!-- ApplicationController&#45;&gt;CandidatesController -->
<g id="edge104" class="edge"><title>ApplicationController&#45;&gt;CandidatesController</title>
<path fill="none" stroke="black" d="M2105.98,-1035.72C2207.6,-1013.5 2403.1,-969.205 2567.15,-922.999 2801.49,-856.993 3076.89,-762.301 3185.72,-724.189"/>
</g>
<!-- InvitationsController -->
<g id="node42" class="node"><title>InvitationsController</title>
<ellipse fill="none" stroke="black" cx="1675.5" cy="-2007.5" rx="111.93" ry="18.3848"/>
<text text-anchor="middle" x="1675.5" y="-2003.9" font-family="Times Roman,serif" font-size="14.00">InvitationsController</text>
</g>
<!-- Admin::DocumentsController -->
<g id="node50" class="node"><title>Admin::DocumentsController</title>
<ellipse fill="none" stroke="black" cx="3064" cy="-516.5" rx="152.028" ry="18.3848"/>
<text text-anchor="middle" x="3064" y="-512.9" font-family="Times Roman,serif" font-size="14.00">Admin::DocumentsController</text>
</g>
<!-- Admin::AttachmentsController -->
<g id="node51" class="node"><title>Admin::AttachmentsController</title>
<ellipse fill="none" stroke="black" cx="3072" cy="-1581.5" rx="159.806" ry="18.3848"/>
<text text-anchor="middle" x="3072" y="-1577.9" font-family="Times Roman,serif" font-size="14.00">Admin::AttachmentsController</text>
</g>
<!-- Admin::HomeController -->
<g id="node52" class="node"><title>Admin::HomeController</title>
<ellipse fill="none" stroke="black" cx="3250" cy="-374.5" rx="125.158" ry="18.3848"/>
<text text-anchor="middle" x="3250" y="-370.9" font-family="Times Roman,serif" font-size="14.00">Admin::HomeController</text>
</g>
<!-- Admin::EventsController -->
<g id="node53" class="node"><title>Admin::EventsController</title>
<ellipse fill="none" stroke="black" cx="3256" cy="-1368.5" rx="130.815" ry="18.3848"/>
<text text-anchor="middle" x="3256" y="-1364.9" font-family="Times Roman,serif" font-size="14.00">Admin::EventsController</text>
</g>
<!-- Admin::UsersController -->
<g id="node54" class="node"><title>Admin::UsersController</title>
<ellipse fill="none" stroke="black" cx="3249.5" cy="-2078.5" rx="123.951" ry="18.3848"/>
<text text-anchor="middle" x="3249.5" y="-2074.9" font-family="Times Roman,serif" font-size="14.00">Admin::UsersController</text>
</g>
<!-- Admin::TransactionsController -->
<g id="node55" class="node"><title>Admin::TransactionsController</title>
<ellipse fill="none" stroke="black" cx="1223.5" cy="-19.5" rx="157.184" ry="18.3848"/>
<text text-anchor="middle" x="1223.5" y="-15.9" font-family="Times Roman,serif" font-size="14.00">Admin::TransactionsController</text>
</g>
<!-- Admin::AdminController -->
<g id="node56" class="node"><title>Admin::AdminController</title>
<ellipse fill="none" stroke="black" cx="1123" cy="-1581.5" rx="127.986" ry="18.3848"/>
<text text-anchor="middle" x="1123" y="-1577.9" font-family="Times Roman,serif" font-size="14.00">Admin::AdminController</text>
</g>
<!-- Api::V1::TokensController -->
<g id="node59" class="node"><title>Api::V1::TokensController</title>
<ellipse fill="none" stroke="black" cx="2833.5" cy="-303.5" rx="133.851" ry="18.3848"/>
<text text-anchor="middle" x="2833.5" y="-299.9" font-family="Times Roman,serif" font-size="14.00">Api::V1::TokensController</text>
</g>
<!-- Devise::SessionsController -->
<g id="node66" class="node"><title>Devise::SessionsController</title>
<ellipse fill="none" stroke="black" cx="3424.47" cy="-1936.5" rx="140.213" ry="18.3848"/>
<text text-anchor="middle" x="3424.47" y="-1932.9" font-family="Times Roman,serif" font-size="14.00">Devise::SessionsController</text>
</g>
<!-- Devise::SessionsController&#45;&gt;Admins::SessionsController -->
<g id="edge4" class="edge"><title>Devise::SessionsController&#45;&gt;Admins::SessionsController</title>
<path fill="none" stroke="black" d="M3284.21,-1936.5C3279.38,-1936.5 3274.54,-1936.5 3269.7,-1936.5"/>
</g>
<!-- Devise::SessionsController&#45;&gt;Users::SessionsController -->
<g id="edge50" class="edge"><title>Devise::SessionsController&#45;&gt;Users::SessionsController</title>
<path fill="none" stroke="black" d="M3564.52,-1936.5C3571.91,-1936.5 3579.32,-1936.5 3586.69,-1936.5"/>
</g>
<!-- Devise::PasswordsController -->
<g id="node87" class="node"><title>Devise::PasswordsController</title>
<ellipse fill="none" stroke="black" cx="3529.35" cy="-942.5" rx="150.113" ry="18.3848"/>
<text text-anchor="middle" x="3529.35" y="-938.9" font-family="Times Roman,serif" font-size="14.00">Devise::PasswordsController</text>
</g>
<!-- Devise::PasswordsController&#45;&gt;Users::PasswordsController -->
<g id="edge44" class="edge"><title>Devise::PasswordsController&#45;&gt;Users::PasswordsController</title>
<path fill="none" stroke="black" d="M3379.19,-942.5C3366.86,-942.5 3354.41,-942.5 3342.13,-942.5"/>
</g>
<!-- Devise::OmniauthCallbacksController -->
<g id="node89" class="node"><title>Devise::OmniauthCallbacksController</title>
<ellipse fill="none" stroke="black" cx="2867.63" cy="-19.5" rx="193.04" ry="18.3848"/>
<text text-anchor="middle" x="2867.63" y="-15.9" font-family="Times Roman,serif" font-size="14.00">Devise::OmniauthCallbacksController</text>
</g>
<!-- Devise::OmniauthCallbacksController&#45;&gt;Users::OmniauthCallbacksController -->
<g id="edge46" class="edge"><title>Devise::OmniauthCallbacksController&#45;&gt;Users::OmniauthCallbacksController</title>
<path fill="none" stroke="black" d="M2674.5,-19.5C2665.57,-19.5 2656.61,-19.5 2647.69,-19.5"/>
</g>
<!-- Devise::RegistrationsController -->
<g id="node91" class="node"><title>Devise::RegistrationsController</title>
<ellipse fill="none" stroke="black" cx="2714.02" cy="-2007.5" rx="162.842" ry="18.3848"/>
<text text-anchor="middle" x="2714.02" y="-2003.9" font-family="Times Roman,serif" font-size="14.00">Devise::RegistrationsController</text>
</g>
<!-- Devise::RegistrationsController&#45;&gt;Users::RegistrationsController -->
<g id="edge48" class="edge"><title>Devise::RegistrationsController&#45;&gt;Users::RegistrationsController</title>
<path fill="none" stroke="black" d="M2550.77,-2007.5C2539.41,-2007.5 2527.98,-2007.5 2516.65,-2007.5"/>
</g>
<!-- Devise::InvitationsController -->
<g id="node106" class="node"><title>Devise::InvitationsController</title>
<ellipse fill="none" stroke="black" cx="1951.67" cy="-2007.5" rx="150.821" ry="18.3848"/>
<text text-anchor="middle" x="1951.67" y="-2003.9" font-family="Times Roman,serif" font-size="14.00">Devise::InvitationsController</text>
</g>
<!-- Devise::InvitationsController&#45;&gt;InvitationsController -->
<g id="edge76" class="edge"><title>Devise::InvitationsController&#45;&gt;InvitationsController</title>
<path fill="none" stroke="black" d="M1800.66,-2007.5C1796.25,-2007.5 1791.86,-2007.5 1787.51,-2007.5"/>
</g>
</g>
</svg>
